# xmcd
#
# Track frame offsets: 
#        150
#        18506
#        42300
#        61903
#        84875
#        106893
#        121489
#        136042
#        151794
#        168045
#
# Disc length: 2505 seconds
#
# Revision: 0
# Processed by: cddbd v1.5.2PL0 Copyright (c) Steve Scherf et al.
# Submitted via: ExactAudioCopy v1.0b3
#
DISCID=6b09c70a
DTITLE=Pee Wee Bluesgang - Playing Funky - The Lost Album
DYEAR=1983
DGENRE=Blues
TTITLE0=One Only Women (ft Drafi Deutscher - vocals)
TTITLE1=Baby Please Please
TTITLE2=Down-Healed Blues
TTITLE3=Sweet Mary-Anne
TTITLE4=Boogie Child (ft Peter Schulte - sax)
TTITLE5=My Summer Sun (ft Drafi Deutscher - vocals)
TTITLE6=Can You Hear my Thunder
TTITLE7=Love Is Jealousy
TTITLE8=Playing Funky (ft Drafi Deutscher - vocals)
TTITLE9=Got All The Meannes Back In Me
EXTD=
EXTT0=
EXTT1=
EXTT2=
EXTT3=
EXTT4=
EXTT5=
EXTT6=
EXTT7=
EXTT8=
EXTT9=
PLAYORDER=
